<?xml version="1.0" encoding="UTF-8"?>
<svg width="24px" height="24px" viewBox="0 0 24 24" version="1.1" xmlns="http://www.w3.org/2000/svg" xmlns:xlink="http://www.w3.org/1999/xlink">
    <!-- Generator: Sketch 62 (91390) - https://sketch.com -->
    <title>icons /  audio / content-view</title>
    <desc>Created with Sketch.</desc>
    <g id="icons-/--audio-/-content-view" stroke="none" stroke-width="1" fill="none" fill-rule="evenodd">
        <g id="tool" fill-rule="nonzero">
            <g id="info">
                <g id="gear">
                    <path d="M12,24 C5.33333333,24 0,18.6666667 0,12 C0,5.33333333 5.33333333,0 12,0 C18.6666667,0 24,5.33333333 24,12 C24,18.6666667 18.6666667,24 12,24 Z" id="Icon-Shape" fill="#1BB3E2"></path>
                    <path d="M6,8 L7.5,8 L7.5,9.5 L6,9.5 L6,8 Z M6,11.75 L7.5,11.75 L7.5,13.25 L6,13.25 L6,11.75 Z M6,15.5 L7.5,15.5 L7.5,17 L6,17 L6,15.5 Z M18,9.5 L18,8 L9.01725,8 L9.01725,9.5 L17.1,9.5 L18,9.5 Z M9,11.75 L18,11.75 L18,13.25 L9,13.25 L9,11.75 Z M9,15.5 L18,15.5 L18,17 L9,17 L9,15.5 Z" id="Icon-Shape" fill="#FFFFFF"></path>
                </g>
            </g>
        </g>
    </g>
</svg>