<?xml version="1.0" encoding="UTF-8"?>
<svg width="34px" height="34px" viewBox="0 0 34 34" version="1.1" xmlns="http://www.w3.org/2000/svg" xmlns:xlink="http://www.w3.org/1999/xlink">
    <title>graphclear</title>
    <g id="Page-1" stroke="none" stroke-width="1" fill="none" fill-rule="evenodd">
        <g id="graphclear" transform="translate(1.000000, 1.000000)" fill-rule="nonzero">
            <path d="M26,31.5 L6,31.5 C5.58578644,31.5 5.21078644,31.3321068 4.93933983,31.0606602 C4.66789322,30.7892136 4.5,30.4142136 4.5,30 L4.5,8.5 L27.5,8.5 L27.5,30 C27.5,30.4142136 27.3321068,30.7892136 27.0606602,31.0606602 C26.7892136,31.3321068 26.4142136,31.5 26,31.5 Z" id="Rectangle-Copy-2" stroke="#0079B5" stroke-width="2" fill="#FFFFFF"></path>
            <path d="M24.5,4.5 L7.5,4.5 L7.5,2 C7.5,1.58578644 7.66789322,1.21078644 7.93933983,0.939339828 C8.21078644,0.667893219 8.58578644,0.5 9,0.5 L23,0.5 C23.4142136,0.5 23.7892136,0.667893219 24.0606602,0.939339828 C24.3321068,1.21078644 24.5,1.58578644 24.5,2 L24.5,4.5 Z" id="Rectangle" stroke="#0079B5" stroke-width="2" fill="#FFFFFF"></path>
            <rect id="Rectangle-Copy" stroke="#0079B5" stroke-width="2" fill="#FFFFFF" x="0.5" y="4.5" width="31" height="4" rx="2"></rect>
            <path d="M21.4315562,11.5936768 C20.9221902,11.5936768 20.509366,11.9291569 20.509366,12.3430913 L20.509366,26.5070258 C20.509366,26.9206674 20.9221902,27.2564403 21.4315562,27.2564403 C21.9409222,27.2564403 22.3537464,26.9206674 22.3537464,26.5070258 L22.3537464,12.3430913 C22.3537464,11.9291569 21.9409222,11.5936768 21.4315562,11.5936768 Z" id="Path" fill="#0079B5"></path>
            <path d="M10.5497119,11.5936768 C10.0403458,11.5936768 9.62752166,11.9291569 9.62752166,12.3430913 L9.62752166,26.5070258 C9.62752166,26.9206674 10.0403458,27.2564403 10.5497119,27.2564403 C11.0590778,27.2564403 11.4719021,26.9206674 11.4719021,26.5070258 L11.4719021,12.3430913 C11.4719021,11.9291569 11.0590778,11.5936768 10.5497119,11.5936768 Z" id="Path" fill="#0079B5"></path>
            <path d="M15.9906341,11.5936768 C15.481268,11.5936768 15.0684439,11.9291569 15.0684439,12.3430913 L15.0684439,26.5070258 C15.0684439,26.9206674 15.481268,27.2564403 15.9906341,27.2564403 C16.5,27.2564403 16.9128243,26.9206674 16.9128243,26.5070258 L16.9128243,12.3430913 C16.9128243,11.9291569 16.5,11.5936768 15.9906341,11.5936768 Z" id="Path" fill="#0079B5"></path>
        </g>
    </g>
</svg>