<?xml version="1.0" encoding="UTF-8"?>
<svg width="28px" height="18px" viewBox="0 0 28 18" version="1.1" xmlns="http://www.w3.org/2000/svg" xmlns:xlink="http://www.w3.org/1999/xlink">
    <!-- Generator: sketchtool 62 (101010) - https://sketch.com -->
    <title>CFD5A4E5-5D85-4E0A-A519-9E9EFB34BEEB</title>
    <desc>Created with sketchtool.</desc>
    <g id="question-types-uis" stroke="none" stroke-width="1" fill="none" fill-rule="evenodd">
        <g id="Graph-/-Icons" transform="translate(-991.000000, -833.000000)" fill="#0079B5" fill-rule="nonzero">
            <g id="frame">
                <g id="graph" transform="translate(981.000000, 301.000000)">
                    <g id="redo" transform="translate(0.000000, 517.000000)">
                        <path d="M10.4843214,32.9477195 C10.2002223,32.888194 10,32.6419747 10,32.3578756 C10,22.5456323 21.6480649,20.4554743 24.3537711,20.1023796 L24.3537711,15.6000846 C24.3537711,15.3782167 24.4755279,15.1752887 24.6716915,15.0684134 C24.870561,14.9655965 25.1059574,14.9804779 25.2885925,15.1008818 L37.7375465,23.4804537 C37.9012417,23.5913877 38,23.7753757 38,23.9796565 C38,24.1785259 37.9012417,24.3638668 37.7375465,24.4748008 L25.2953568,32.8530198 C25.1100159,32.9747766 24.8719138,32.9883051 24.677103,32.8841354 C24.4795864,32.7786129 24.3578296,32.5743321 24.3578296,32.3511113 L24.3578296,27.5078973 C22.4002512,27.520073 20.7795333,27.6066556 19.4307388,27.768998 C12.9573368,28.5360657 11.2270377,32.4228125 11.1566894,32.5892135 L11.1566894,32.5892135 C11.0606368,32.8124342 10.8414746,32.9558367 10.6020196,32.9558367 C10.561434,32.9585424 10.5208484,32.9558367 10.4843214,32.9477195 Z"></path>
                    </g>
                </g>
            </g>
        </g>
    </g>
</svg>