<svg xmlns="http://www.w3.org/2000/svg" width="52" height="52" viewBox="0 0 52 52">
    <g fill="none" fill-rule="evenodd">
        <g>
            <g>
                <g>
                    <g>
                        <g transform="translate(-766 -1813) translate(37 150) translate(680 1650) translate(49 13) translate(8)">
                            <path stroke="#094B65" stroke-width="2" d="M36.237 1.023v49.923H1.022V1.023h35.215z"/>
                            <path fill="#00AB6F" d="M4 9L33 9 33 5 4 5z"/>
                            <path fill="#F8716C" d="M4 21L17 21 17 12 4 12z"/>
                            <circle cx="10.5" cy="16.5" r="2.5" fill="#FFF"/>
                            <path fill="#4A4A4A" d="M3.715 24.5L32.715 24.5 32.715 24 3.715 24zM3.715 28L32.715 28 32.715 27.5 3.715 27.5zM3.715 31.5L32.715 31.5 32.715 31 3.715 31zM3.715 35L32.715 35 32.715 34.5 3.715 34.5zM3.715 38.5L32.715 38.5 32.715 38 3.715 38zM3.715 42L32.715 42 32.715 41.5 3.715 41.5zM3.715 45L32.715 45 32.715 44.5 3.715 44.5zM19.715 12.157L32.715 12.157 32.715 11.657 19.715 11.657zM19.715 15.157L32.715 15.157 32.715 14.657 19.715 14.657zM19.715 18.157L32.715 18.157 32.715 17.657 19.715 17.657zM19.715 21.157L32.715 21.157 32.715 20.657 19.715 20.657z"/>
                        </g>
                    </g>
                </g>
            </g>
        </g>
    </g>
</svg>
