<svg xmlns="http://www.w3.org/2000/svg" width="52" height="52" viewBox="0 0 52 52">
    <g fill="none" fill-rule="evenodd">
        <g>
            <g>
                <g>
                    <g>
                        <g>
                            <path fill="#B48F8B" d="M42.514 21.913H37.83v1.788h2.435c.432 0 .782.35.782.783 0 .432-.35.782-.782.782H9.395c-.432 0-.782-.35-.782-.782 0-.433.35-.783.782-.783h2.26v-1.788H7.058l-4.595 5.478H47.11l-4.595-5.478" transform="translate(-936 -1663) translate(37 150) translate(850 1500) translate(49 13) translate(1)"/>
                            <path fill="#B4B5B1" d="M42.004 3.391c0-1.006-.82-1.826-1.826-1.826-1.295 0-2.348 1.053-2.348 2.348v4.435h4.174V3.39" transform="translate(-936 -1663) translate(37 150) translate(850 1500) translate(49 13) translate(1)"/>
                            <path fill="#DADAD5" d="M33.147 6.833l-7.95 7.428c-.15.14-.343.21-.534.21-.2 0-.4-.076-.553-.228l-2.54-2.532v3.941h5.88V14.04c0-.432.351-.782.784-.782.432 0 .782.35.782.782v2.395c0 .432-.35.782-.782.782h-7.446c-.432 0-.783-.35-.783-.782V10.15l-.727-.726c-.307-.306-.307-.801-.002-1.107.305-.306.8-.307 1.107-.002l.555.555h4.37c.433 0 .783.35.783.782 0 .433-.35.783-.783.783h-2.8l2.172 2.167 7.399-6.913c.315-.295.81-.279 1.106.038.295.315.278.81-.038 1.106zm3.118 2.3V9.13 3.913c0-.88.292-1.693.784-2.348H15.567c-1.294 0-2.347 1.053-2.347 2.348v19.788h23.045V9.133z" transform="translate(-936 -1663) translate(37 150) translate(850 1500) translate(49 13) translate(1)"/>
                            <path fill="#CB918E" d="M1.569 32.609L48.004 32.609 48.004 28.957 1.569 28.957z" transform="translate(-936 -1663) translate(37 150) translate(850 1500) translate(49 13) translate(1)"/>
                            <path fill="#A57B78" d="M4.178 50.435L45.395 50.435 45.395 34.174 4.178 34.174z" transform="translate(-936 -1663) translate(37 150) translate(850 1500) translate(49 13) translate(1)"/>
                            <path fill="#0A0B09" d="M1.57 32.609h46.434v-3.652H1.57v3.652zm2.608 17.826h41.217V34.174H4.178v16.26zm2.881-28.522h4.595v1.788H9.395c-.432 0-.782.35-.782.783 0 .432.35.782.782.782h30.87c.432 0 .782-.35.782-.782 0-.433-.35-.783-.782-.783H37.83v-1.788h4.684l4.595 5.478H2.464l4.595-5.478zm6.16-18c0-1.295 1.054-2.348 2.348-2.348H37.05c-.492.655-.784 1.468-.784 2.348v19.788H13.22V3.913zm24.611 0c0-1.295 1.053-2.348 2.348-2.348 1.007 0 1.826.82 1.826 1.826v4.957H37.83V3.913zm11.725 24.124l-.008-.04c-.008-.037-.02-.074-.033-.11-.004-.007-.005-.015-.009-.022-.017-.04-.039-.08-.063-.117l-.023-.032c-.011-.015-.02-.03-.033-.045l-5.907-7.043c-.149-.178-.368-.28-.6-.28H37.83V9.913h4.957c.432 0 .782-.35.782-.783V3.391C43.57 1.521 42.048 0 40.178 0h-24.61c-2.159 0-3.914 1.755-3.914 3.913v16.435h-4.96c-.231 0-.451.102-.6.28L.187 27.67c-.012.014-.022.03-.032.045l-.024.032c-.024.038-.046.076-.063.117l-.008.023c-.014.035-.025.072-.034.109l-.008.04c-.008.042-.012.084-.013.126l-.001.01v5.218c0 .433.35.783.783.783h1.826v17.043c0 .433.35.783.782.783h42.783c.432 0 .783-.35.783-.783V34.174h1.826c.432 0 .782-.35.782-.783v-5.217-.01c-.001-.043-.006-.085-.014-.127z" transform="translate(-936 -1663) translate(37 150) translate(850 1500) translate(49 13) translate(1)"/>
                            <path fill="#0A0B09" d="M32.079 5.689l-7.399 6.913-2.172-2.167h2.8c.433 0 .783-.35.783-.783 0-.432-.35-.782-.783-.782h-4.37l-.555-.555c-.306-.305-.802-.304-1.107.002-.305.306-.305.801.002 1.107l.727.726v6.285c0 .432.35.782.783.782h7.446c.432 0 .782-.35.782-.782V14.04c0-.432-.35-.782-.782-.782-.433 0-.783.35-.783.782v1.612h-5.88v-3.941l2.54 2.532c.151.152.351.229.552.229.191 0 .383-.07.534-.21l7.95-7.43c.316-.294.333-.79.038-1.105-.295-.317-.79-.333-1.106-.038" transform="translate(-936 -1663) translate(37 150) translate(850 1500) translate(49 13) translate(1)"/>
                        </g>
                    </g>
                </g>
            </g>
        </g>
    </g>
</svg>
