<svg xmlns="http://www.w3.org/2000/svg" width="52" height="52" viewBox="0 0 52 52">
    <g fill="none" fill-rule="evenodd">
        <g fill-rule="nonzero">
            <g>
                <g>
                    <g>
                        <g>
                            <path fill="#FF8D8D" d="M18.281 19.284V4.486c0-2.478-2.068-4.486-4.62-4.486-2.717 0-4.836 2.258-4.603 4.877-3.683.085-6.193 3.604-5.076 6.95C1.651 12.718 0 14.923 0 17.502c0 2.401 1.431 4.478 3.51 5.47-3.638 3.889.22 10.154 5.55 8.685-.252 2.628 1.872 4.907 4.6 4.907 2.553 0 4.621-2.008 4.621-4.485V19.284z" transform="translate(-596 -2263) translate(37 150) translate(510 2100) translate(49 13) translate(7.719 7.719)"/>
                            <path fill="#FD4A4A" d="M22.902 0c-2.552 0-4.62 2.008-4.62 4.485v27.593c0 2.477 2.068 4.485 4.62 4.485 2.729 0 4.852-2.279 4.6-4.907 5.33 1.469 9.19-4.796 5.55-8.684 2.08-.993 3.51-3.07 3.51-5.47 0-2.58-1.65-4.784-3.982-5.674 1.118-3.347-1.393-6.866-5.075-6.951C27.738 2.258 25.619 0 22.902 0z" transform="translate(-596 -2263) translate(37 150) translate(510 2100) translate(49 13) translate(7.719 7.719)"/>
                        </g>
                        <path fill="#000" d="M45.297 25.22c0-2.648-1.468-5.014-3.807-6.248.285-1.611-.081-3.263-1.053-4.645-1.003-1.428-2.5-2.363-4.205-2.653-.111-1.158-.595-2.246-1.409-3.135-1.067-1.167-2.599-1.836-4.202-1.836-1.91 0-3.601.933-4.62 2.357-1.02-1.424-2.71-2.357-4.621-2.357-1.604 0-3.136.67-4.203 1.836-.813.889-1.297 1.977-1.409 3.135-1.704.29-3.202 1.225-4.205 2.653-.971 1.382-1.338 3.034-1.053 4.645-2.34 1.234-3.807 3.6-3.807 6.248 0 2.324 1.131 4.44 3.018 5.763-1.085 1.712-1.249 3.773-.408 5.713 1.032 2.377 3.344 3.913 5.892 3.913.198 0 .398-.009.598-.027.158 1.055.627 2.057 1.361 2.865 1.068 1.176 2.604 1.85 4.216 1.85 1.91 0 3.6-.933 4.62-2.356 1.02 1.423 2.71 2.356 4.62 2.356 1.611 0 3.148-.674 4.216-1.85.734-.808 1.203-1.81 1.361-2.865.2.018.4.027.597.027h.001c2.548 0 4.86-1.536 5.892-3.914.841-1.94.678-4-.408-5.712 1.887-1.322 3.018-3.439 3.018-5.763zM24.984 39.796c0 1.913-1.617 3.47-3.604 3.47-1.04 0-2.029-.432-2.713-1.185-.51-.561-.81-1.245-.877-1.971 1.831-.728 2.304-1.969 2.66-2.903.297-.785.447-1.18 1.297-1.407.542-.145.863-.702.718-1.244-.145-.542-.702-.864-1.244-.718-1.854.497-2.326 1.74-2.67 2.647-.348.914-.578 1.518-2.034 1.909h-.004l-.003.002c-.44.12-.878.182-1.305.182-1.738 0-3.32-1.056-4.028-2.69-.678-1.565-.382-3.248.793-4.504.222-.236.317-.564.257-.882-.06-.318-.268-.588-.56-.728-1.809-.864-2.933-2.609-2.933-4.554 0-2.098 1.307-3.953 3.33-4.724.508-.194.773-.755.6-1.27-.421-1.265-.217-2.624.56-3.731.817-1.161 2.117-1.848 3.568-1.884 1.727.004 2.109.694 2.635 1.647.48.869 1.138 2.059 2.905 2.059.56 0 1.016-.455 1.016-1.016 0-.561-.455-1.016-1.016-1.016-.523 0-.66-.165-1.127-1.01-.516-.934-1.263-2.283-3.386-2.618.106-.643.397-1.245.857-1.747.683-.747 1.669-1.175 2.704-1.175 1.987 0 3.604 1.556 3.604 3.469v13.737c-2.384-.232-2.98-1.322-3.71-2.662-.715-1.312-1.604-2.945-4.278-3.227-.557-.059-1.057.345-1.116.903-.06.558.345 1.058.903 1.117 1.613.17 2.048.97 2.707 2.178.238.438.493.904.817 1.353-.536.544-1.343 1.107-2.259 1.561-.502.25-.708.859-.459 1.361.178.358.537.565.911.565.152 0 .306-.034.45-.106 1.139-.564 2.117-1.254 2.82-1.974.768.49 1.792.852 3.214.968v11.818zm15.35-10.022c-.292.14-.5.41-.56.728-.06.319.035.646.256.883 1.175 1.255 1.471 2.938.793 4.502-.709 1.635-2.29 2.69-4.028 2.691-.427 0-.866-.061-1.305-.182l-.003-.001-.004-.001c-1.456-.39-1.686-.994-2.033-1.909-.345-.907-.817-2.15-2.671-2.647-.542-.145-1.099.176-1.244.718-.145.542.176 1.099.718 1.244.85.228 1 .622 1.298 1.407.355.934.828 2.176 2.66 2.903-.067.726-.368 1.41-.878 1.972-.684.752-1.673 1.184-2.712 1.184-1.988 0-3.605-1.557-3.605-3.47v-7.27c.002-1.826.963-2.735 1.864-2.976 1.117-.3 2.288.283 2.982 1.484.28.486.9.652 1.387.371.486-.28.652-.901.372-1.387-1.15-1.99-3.265-2.966-5.267-2.43-.49.131-.94.344-1.338.623V21.66c2.135.18 2.775.963 3.559 1.92.693.848 1.478 1.807 3.169 2.345.102.033.206.048.308.048.43 0 .83-.276.967-.708.17-.534-.125-1.106-.66-1.276-1.116-.355-1.6-.946-2.212-1.695-.942-1.151-1.999-2.442-5.131-2.67v-7.42c0-1.913 1.617-3.47 3.605-3.47 1.034 0 2.02.43 2.703 1.176.46.502.751 1.104.857 1.747-2.123.335-2.87 1.685-3.386 2.619-.467.844-.604 1.01-1.127 1.01-.56 0-1.016.454-1.016 1.015 0 .56.455 1.016 1.016 1.016 1.767 0 2.425-1.19 2.905-2.059.526-.953.908-1.643 2.635-1.647 1.451.036 2.75.723 3.567 1.884.778 1.107.982 2.466.56 3.73-.172.516.093 1.077.602 1.27 2.022.772 3.329 2.627 3.329 4.725 0 1.945-1.124 3.69-2.932 4.554z" transform="translate(-596 -2263) translate(37 150) translate(510 2100) translate(49 13)"/>
                        <path fill="#000" d="M36.939 24.311h-.013c-.56 0-1.016.455-1.016 1.016 0 .561.455 1.016 1.016 1.016h.013c.56 0 1.015-.455 1.015-1.016 0-.56-.454-1.016-1.015-1.016zM15.596 28.035l-.043.01c-.547.125-.888.67-.762 1.217.108.47.526.788.988.788.074 0 .149-.008.223-.025.546-.114.898-.646.789-1.193-.11-.55-.646-.907-1.195-.797zM26 4.063c.56 0 1.016-.455 1.016-1.016V1.016C27.016.455 26.56 0 26 0c-.56 0-1.016.455-1.016 1.016v2.03c0 .562.455 1.017 1.016 1.017zM13.644 6.63c.188.326.53.508.88.508.173 0 .347-.044.507-.136.486-.28.652-.902.372-1.388l-1.016-1.759c-.28-.486-.901-.652-1.387-.372s-.652.902-.372 1.388l1.016 1.759zM3.855 14.387l1.76 1.016c.16.092.334.136.506.136.351 0 .693-.182.88-.508.281-.486.115-1.107-.371-1.387l-1.76-1.016c-.485-.28-1.106-.114-1.387.372-.28.486-.114 1.107.372 1.387zM4.063 26c0-.56-.455-1.016-1.016-1.016H1.016C.455 24.984 0 25.44 0 26c0 .561.455 1.016 1.016 1.016h2.03c.562 0 1.017-.455 1.017-1.016zM5.614 36.597l-1.759 1.016c-.486.28-.652.901-.372 1.387.188.326.53.508.88.508.173 0 .348-.044.508-.136l1.759-1.016c.486-.28.652-.901.372-1.387s-.902-.652-1.388-.372zM15.031 44.999c-.486-.281-1.107-.114-1.387.371l-1.016 1.76c-.28.485-.114 1.106.372 1.387.16.092.335.136.507.136.35 0 .692-.182.88-.508l1.016-1.76c.28-.485.114-1.106-.372-1.386zM26 47.938c-.56 0-1.016.454-1.016 1.015v2.032c0 .56.455 1.015 1.016 1.015.56 0 1.016-.454 1.016-1.015v-2.032c0-.56-.455-1.015-1.016-1.015zM38.356 45.37c-.28-.485-.901-.652-1.387-.371-.486.28-.652.901-.372 1.387l1.016 1.76c.188.325.53.507.88.507.173 0 .347-.044.507-.136.486-.28.652-.902.372-1.388l-1.016-1.759zM48.145 37.613l-1.76-1.016c-.485-.28-1.106-.114-1.386.372-.28.486-.114 1.107.371 1.387l1.76 1.016c.16.092.334.136.506.136.351 0 .693-.182.88-.508.281-.486.115-1.107-.371-1.387zM50.985 24.984h-2.032c-.56 0-1.015.455-1.015 1.016 0 .561.454 1.016 1.015 1.016h2.032c.56 0 1.015-.455 1.015-1.016 0-.56-.455-1.016-1.015-1.016zM45.879 15.54c.172 0 .347-.045.507-.137l1.759-1.016c.486-.28.652-.901.372-1.387s-.902-.652-1.388-.372l-1.759 1.016c-.486.28-.652.901-.372 1.387.189.326.53.508.881.508zM36.969 7.002c.16.092.334.136.507.136.35 0 .692-.182.88-.508l1.016-1.76c.28-.485.114-1.106-.372-1.387-.486-.28-1.107-.114-1.387.372l-1.016 1.76c-.28.485-.114 1.106.372 1.387z" transform="translate(-596 -2263) translate(37 150) translate(510 2100) translate(49 13)"/>
                    </g>
                </g>
            </g>
        </g>
    </g>
</svg>
