<svg xmlns="http://www.w3.org/2000/svg" width="52" height="52" viewBox="0 0 52 52">
    <g fill="none" fill-rule="evenodd">
        <g fill-rule="nonzero">
            <g>
                <g>
                    <g>
                        <g>
                            <path fill="#000" d="M46.124 49.113l-7.467-7.445c3.904-5.068 3.53-12.38-1.12-17.019-1.355-1.35-2.956-2.364-4.702-3.002V9.957c0-.448-.179-.878-.497-1.195L24.048.495C23.73.178 23.298 0 22.848 0H1.697C.759 0 0 .757 0 1.69v35.983c0 .934.76 1.69 1.696 1.69h14.958c.618 1.296 1.463 2.509 2.536 3.579 2.45 2.443 5.708 3.788 9.173 3.788 2.893 0 5.642-.938 7.896-2.67l7.467 7.445c.331.33.765.495 1.199.495.434 0 .868-.165 1.199-.495.662-.66.662-1.731 0-2.392z" transform="translate(-86 -2113) translate(37 150) translate(0 1950) translate(49 13) translate(3)"/>
                            <path fill="#000" d="M24.207 5.379L26.897 8.069 24.207 8.069 24.207 5.379z" transform="translate(-86 -2113) translate(37 150) translate(0 1950) translate(49 13) translate(3)"/>
                            <path fill="#22C28F" d="M3.586 35.862V3.586h17.726v6.51c0 .925.758 1.674 1.692 1.674h6.582v9.166c-.356-.03-.716-.045-1.078-.045-.915 0-1.815.094-2.69.276H6.516c-.623 0-1.128.5-1.128 1.116 0 .617.505 1.116 1.128 1.116h14.292c-.51.376-.997.79-1.455 1.243-.593.587-1.116 1.218-1.57 1.882H6.516c-.623 0-1.128.5-1.128 1.116 0 .616.505 1.116 1.128 1.116h10.049c-.95 2.256-1.222 4.727-.813 7.106H3.586z" transform="translate(-86 -2113) translate(37 150) translate(0 1950) translate(49 13) translate(3)"/>
                            <path fill="#D59D54" d="M19.148 31.157h7.265c.626 0 1.133-.494 1.133-1.103 0-.61-.507-1.104-1.133-1.104H20.07c.416-.717.935-1.393 1.562-2.003 1.813-1.767 4.223-2.74 6.787-2.74 1.35 0 2.657.272 3.857.786v13.559H20.303c-1.442-2.226-1.827-4.919-1.155-7.395z" transform="translate(-86 -2113) translate(37 150) translate(0 1950) translate(49 13) translate(3)"/>
                            <path fill="#FFF" d="M22.414 40.817h10.778c.606 0 1.098-.509 1.098-1.136V26c.222.191.437.393.644.607 3.628 3.752 3.628 9.857 0 13.609-1.757 1.817-4.094 2.818-6.58 2.818-2.195 0-4.274-.782-5.94-2.217zM6.509 17.034h20.155c.623 0 1.13-.401 1.13-.896s-.507-.897-1.13-.897H6.509c-.624 0-1.13.402-1.13.897s.506.896 1.13.896z" transform="translate(-86 -2113) translate(37 150) translate(0 1950) translate(49 13) translate(3)"/>
                        </g>
                    </g>
                </g>
            </g>
        </g>
    </g>
</svg>
