<svg xmlns="http://www.w3.org/2000/svg" width="52" height="52" viewBox="0 0 52 52">
    <g fill="none" fill-rule="evenodd">
        <g stroke="#000" stroke-width="2">
            <g>
                <g>
                    <g>
                        <g>
                            <path fill="#83E8FD" d="M46.836 23.418c0 12.934-10.484 23.418-23.418 23.418C10.485 46.836 0 36.352 0 23.418 0 10.485 10.485 0 23.418 0c12.934 0 23.418 10.485 23.418 23.418" transform="translate(-1106 -1663) translate(37 150) translate(1020 1500) translate(49 13) translate(2 3)"/>
                            <path fill="#FFF" d="M34.354 18.968l-9.285-7.536c.724-1.273 1.666-2.408 2.786-3.432 3.499 2.162 6.525 4.733 9.284 7.536-.712 1.319-1.641 2.463-2.785 3.432M12.97 36.804c4.504-3.601 9.409-6.528 14.741-8.73 1.829-3.04 3.853-5.922 6.203-8.542l-9.306-7.553c-2.104 2.797-4.48 5.368-7.047 7.783-1.093 5.687-3.056 11.08-5.623 16.267-.27.016-.532.14-.716.367-.288.354-.29.846-.04 1.202 0 0 0 0 0 0 .001.003.003.003.004.004v.002h0c.038.036.4-.213.697-.58.297-.366.444-.743.421-.797l10.145-12.5c-.255-.356-.253-.852.037-1.209.347-.428.976-.493 1.404-.146.428.348.493.976.146 1.404-.29.357-.775.46-1.176.285l-10.146 12.5c-.064-.005-.398.215-.691.577-.294.362-.463.76-.426.8h0l.007.003s0 0 0 0h0c.4.171.88.067 1.168-.287.2-.248.263-.561.198-.85" transform="translate(-1106 -1663) translate(37 150) translate(1020 1500) translate(49 13) translate(2 3)"/>
                        </g>
                    </g>
                </g>
            </g>
        </g>
    </g>
</svg>
