<svg xmlns="http://www.w3.org/2000/svg" width="52" height="52" viewBox="0 0 52 52">
    <g fill="none" fill-rule="evenodd">
        <g fill-rule="nonzero">
            <g>
                <g>
                    <g>
                        <g>
                            <path fill="#688A6F" stroke="#000" d="M34.361 32.652c1-.044 2.23.458 3.383 1.499h0l12.315 10.478c.888.8 1.374 1.854 1.435 2.909.06 1.04-.297 2.082-1.085 2.87-.79.79-1.83 1.145-2.87 1.086-1.055-.061-2.109-.547-2.91-1.435h0L34.152 37.742c-1.04-1.153-1.546-2.382-1.499-3.381.02-.4.13-.828.329-1.265l.042-.089.096-.044c.357-.158.708-.256 1.042-.295zM19.124.504c4.744-.094 9.523 1.578 13.27 5.04 3.746 3.46 5.792 8.09 6.074 12.827.282 4.736-1.2 9.577-4.51 13.457-.134.159-.272.314-.41.467l-.389.413-.122.124-.242.241-.255.247c-.115.109-.232.216-.35.322l-.36.314c-3.88 3.31-8.722 4.792-13.458 4.51-4.736-.282-9.368-2.328-12.829-6.074C2.083 28.645.41 23.867.503 19.123.599 14.38 2.46 9.671 6.066 6.065 9.672 2.459 14.381.598 19.125.504z" transform="translate(-256 -1963) translate(37 150) translate(170 1800) translate(49 13) rotate(-90 26 26) matrix(-1 0 0 1 52 0)"/>
                            <path fill="#FFF" stroke="#000" d="M32.5 35C23.94 35 17 28.06 17 19.5 17 10.94 23.94 4 32.5 4 41.06 4 48 10.94 48 19.5 48 28.06 41.06 35 32.5 35z" transform="translate(-256 -1963) translate(37 150) translate(170 1800) translate(49 13) rotate(-90 26 26)"/>
                            <g>
                                <g fill="#F8716C">
                                    <path d="M9 4.139c0 1.694-1.34 2.724-2.317 3.48-.37.286-1.06 1.809-1.058 2.004C5.632 10.39 4.964 11 4.132 11H4.12c-.826 0-1.499-.593-1.505-1.354-.013-1.502 1.176-3.4 2.132-4.14.75-.58 1.242-.988 1.242-1.362 0-.756-.668-1.371-1.489-1.371-.821 0-1.49.615-1.49 1.371 0 .766-.673 1.386-1.505 1.386C.674 5.53 0 4.91 0 4.144 0 1.86 2.019 0 4.5 0S9 1.854 9 4.139zM4.183 11.5c-.838 0-1.483.67-1.483 1.497v.012c0 .826.646 1.491 1.483 1.491.838 0 1.517-.676 1.517-1.503 0-.827-.679-1.497-1.517-1.497z" transform="translate(-256 -1963) translate(37 150) translate(170 1800) translate(49 13) rotate(-90 26 26) rotate(135 21.672 20.435) rotate(-45 17.803 .49)"/>
                                </g>
                                <path fill="#36C6E3" d="M13.793.879c4.326 0 8.176 2.034 10.647 5.199-2.55-2.587-6.153-4.2-10.147-4.2C6.73 1.879.568 7.662.302 14.892c-.006-.17-.01-.34-.01-.512 0-7.456 6.045-13.5 13.5-13.5z" transform="translate(-256 -1963) translate(37 150) translate(170 1800) translate(49 13) rotate(-90 26 26) rotate(135 21.672 20.435)"/>
                            </g>
                        </g>
                    </g>
                </g>
            </g>
        </g>
    </g>
</svg>
