<svg xmlns="http://www.w3.org/2000/svg" width="52" height="52" viewBox="0 0 52 52">
    <g fill="none" fill-rule="nonzero">
        <path fill="#000" d="M31.428 5.687c.453 0 .756-.302.756-.756V1.756c0-.454-.303-.756-.756-.756-.454 0-.756.302-.756.756V4.93c0 .378.378.756.756.756zM50.176 19.748H47c-.453 0-.756.302-.756.756 0 .453.303.756.756.756h3.176c.453 0 .755-.303.755-.756a.757.757 0 0 0-.755-.756zM12.755 21.26h3.175c.454 0 .756-.303.756-.756 0-.454-.302-.756-.756-.756h-3.175c-.453 0-.756.302-.756.756 0 .453.303.756.756.756zM42.994 9.996l2.192-2.268a.73.73 0 0 0 0-1.058.73.73 0 0 0-1.058 0l-2.192 2.268a.73.73 0 0 0 0 1.058.73.73 0 0 0 1.058 0zM19.937 9.996a.73.73 0 0 0 1.058 0 .73.73 0 0 0 0-1.058L18.803 6.67a.73.73 0 0 0-1.058 0 .73.73 0 0 0 0 1.058l2.192 2.268zM49.042 26.93l-2.949-1.21c-.378-.151-.831 0-.982.378-.152.378 0 .832.378.983l2.948 1.21c.378.15.831 0 .983-.379.226-.453 0-.831-.378-.982zM13.814 14.154l2.948 1.21c.378.15.831 0 .983-.379.15-.378 0-.831-.378-.982l-2.949-1.21c-.378-.151-.831 0-.982.378-.152.378 0 .756.378.983zM37.022 6.745c.378.152.831 0 .982-.378l1.21-2.948c.151-.378 0-.831-.378-.983-.378-.15-.832 0-.983.378l-1.21 2.949c-.15.378 0 .831.379.982zM24.7 6.443c.15.378.604.53.982.378.378-.151.53-.605.378-.983l-1.21-2.872c-.15-.454-.529-.605-.906-.454-.378.151-.53.605-.378.983l1.133 2.948zM16.837 25.871l-2.948 1.21c-.378.151-.53.605-.378.983.151.378.605.529.983.378l2.873-1.21c.378-.151.529-.605.378-.983-.076-.378-.53-.529-.908-.378zM45.11 14.759c.152.378.605.529.983.378l2.873-1.21c.378-.151.53-.605.378-.983-.151-.378-.605-.529-.983-.378l-2.872 1.21c-.378.151-.53.605-.378.983zM30.672 6.972c-6.35.378-11.567 5.594-12.171 12.096a13.319 13.319 0 0 0 3.704 10.583c2.116 2.192 3.402 4.99 3.628 7.862h-1.36c-.303 0-.605.151-.832.378-.227.227-.378.53-.378.832v5.14c0 .68.53 1.21 1.21 1.21h3.25v1.814h-1.512a.757.757 0 0 0-.756.756c0 .454.378.756.756.756H27.8c.227 1.436 1.436 2.57 2.872 2.57h1.664c1.436 0 2.646-1.134 2.872-2.57h1.588a.757.757 0 0 0 .756-.756.757.757 0 0 0-.756-.756h-1.512v-1.814h3.25c.68 0 1.21-.53 1.21-1.21v-5.14c0-.68-.53-1.21-1.21-1.21h-1.36c.302-2.948 1.512-5.745 3.628-7.937 2.344-2.495 3.629-5.821 3.629-9.299 0-7.635-6.274-13.758-13.758-13.305z"/>
        <path fill="#22C28F" d="M32.41 49.382h-1.663c-.756 0-1.436-.68-1.436-1.512 0-.756 0-2.192-.076-2.949h4.536l.076 2.949c0 .831-.605 1.512-1.437 1.512zM38.231 38.95v4.46c-7.71.075-6.879 0-13.38.075v-4.46c7.181 0 4.082 0 13.38-.076z"/>
        <path fill="#83E8FD" d="M39.743 28.442c-2.343 2.494-3.78 5.67-4.006 8.996-4.31 0-2.57 0-8.316.075-.302-3.326-1.739-6.426-4.082-8.92a11.696 11.696 0 0 1-3.25-9.45c.528-5.745 5.14-10.357 10.734-10.735h.68c6.275 0 11.49 5.292 11.49 11.794-.075 3.099-1.209 6.047-3.25 8.24z"/>
        <path fill="#000" d="M38.307 16.044l.983-1.361a.81.81 0 0 0-.076-1.058l-1.436-1.437c-.303-.302-.68-.302-.983-.075l-1.36 1.058c-.606-.378-1.286-.605-1.966-.832l-.227-1.738c-.076-.378-.378-.68-.756-.68h-2.117c-.378 0-.68.302-.756.68l-.15 1.738c-.681.152-1.362.454-1.966.832l-1.361-1.058c-.302-.227-.756-.227-.983.075L23.717 13.7c-.303.303-.303.68-.076.983l1.059 1.36c-.378.605-.605 1.286-.832 1.966l-1.663.227c-.378.076-.68.378-.68.756v2.117c0 .378.302.68.68.755l1.663.227c.151.68.454 1.361.832 1.966l-1.059 1.36c-.227.303-.227.757.076.983l1.436 1.512c.303.303.68.303.983.076l1.36-1.058c.605.378 1.286.604 1.966.831l.227 1.739c.075.378.378.68.756.68h2.116c.378 0 .68-.302.756-.68l.227-1.739c.68-.151 1.36-.453 1.966-.831l1.285.982c.151.076.302.152.529.152.227 0 .454-.076.53-.227L39.29 26.4c.302-.302.302-.68.075-.982l-1.058-1.361c.378-.605.605-1.285.831-1.966l1.664-.226c.378-.076.68-.378.68-.756v-2.117c0-.378-.303-.68-.68-.756l-1.664-.227c-.226-.68-.529-1.36-.831-1.965z"/>
        <path fill="#F8716C" d="M39.894 20.428l-1.512.227c-.302.076-.604.303-.604.605-.151.907-.53 1.663-.983 2.419a.964.964 0 0 0 0 .907l.983 1.285-.53.53-1.209-.983c-.227-.227-.605-.227-.907 0a5.658 5.658 0 0 1-2.42.982c-.302.076-.528.303-.604.68l-.227 1.588h-.756l-.227-1.587c-.075-.303-.302-.605-.604-.68-.832-.152-1.663-.53-2.42-.983a.964.964 0 0 0-.907 0l-1.21.982-.528-.529.907-1.21c.227-.226.227-.68 0-.906-.454-.756-.832-1.512-.983-2.42a.82.82 0 0 0-.605-.604l-1.587-.303v-.756l1.587-.227c.303-.075.605-.302.605-.604.151-.907.53-1.663.983-2.42a.964.964 0 0 0 0-.906l-.983-1.286.53-.529 1.209.907c.227.227.68.227.907 0 .68-.453 1.512-.831 2.343-.982.303-.076.53-.303.605-.68l.227-1.588h.756l.302 1.738c.076.303.303.605.605.68.832.152 1.663.53 2.42.984a.964.964 0 0 0 .906 0l1.21-.983.529.529-.983 1.285c-.227.227-.227.605 0 .907.53.756.832 1.512.983 2.42a.82.82 0 0 0 .605.604l1.587.227v.68z"/>
        <path fill="#000" d="M31.428 15.363c-2.57 0-4.687 2.117-4.687 4.687 0 2.57 2.116 4.687 4.687 4.687 2.57 0 4.687-2.116 4.687-4.687 0-2.57-2.117-4.687-4.687-4.687z"/>
        <path fill="#F8716C" d="M31.428 23.225a3.194 3.194 0 0 1-3.175-3.175 3.194 3.194 0 0 1 3.175-3.175 3.194 3.194 0 0 1 3.175 3.175 3.194 3.194 0 0 1-3.175 3.175z"/>
        <path fill="#000" d="M10.941 40.083a5.227 5.227 0 0 0 5.216-5.216 5.227 5.227 0 0 0-5.216-5.216 5.227 5.227 0 0 0-5.216 5.216 5.227 5.227 0 0 0 5.216 5.216z"/>
        <path fill="#F8C481" d="M10.941 31.163a3.71 3.71 0 0 1 3.704 3.704 3.71 3.71 0 0 1-3.704 3.704 3.71 3.71 0 0 1-3.704-3.704 3.71 3.71 0 0 1 3.704-3.704z"/>
        <path fill="#000" d="M11.772 40.461H10.11c-4.989 0-9.071 4.083-9.071 9.072v.605c0 .453.302.756.756.756h18.294c.454 0 .756-.303.756-.756v-.605c0-4.99-4.082-9.072-9.072-9.072z"/>
        <path fill="#F8C481" d="M2.55 49.382a7.551 7.551 0 0 1 7.56-7.409h1.662c4.083 0 7.485 3.326 7.56 7.409H2.55z"/>
    </g>
</svg>
