<svg xmlns="http://www.w3.org/2000/svg" width="52" height="52" viewBox="0 0 52 52">
    <g fill="none" fill-rule="evenodd" stroke-linecap="round" stroke-linejoin="round">
        <g stroke-width="2">
            <g>
                <g>
                    <g>
                        <g>
                            <path stroke="#4A4A4A" d="M23.077 10.262v1.052c-.003 5.007-3.367 9.417-8.267 10.836-4.9 1.42-10.17-.488-12.951-4.688-2.781-4.201-2.412-9.694.908-13.5 3.32-3.807 8.8-5.02 13.468-2.983" transform="translate(-596 -1663) translate(37 150) translate(510 1500) translate(49 13) translate(1 14)"/>
                            <path stroke="#00AB6F" d="M20 4.923L10.308 14.385 6.846 10.986" transform="translate(-596 -1663) translate(37 150) translate(510 1500) translate(49 13) translate(1 14)"/>
                        </g>
                        <g>
                            <path stroke="#4A4A4A" d="M25.077 12.262v1.052c-.003 5.007-3.367 9.417-8.267 10.836-4.9 1.42-10.17-.488-12.951-4.688-2.781-4.201-2.412-9.694.908-13.5 3.32-3.807 8.8-5.02 13.468-2.983" transform="translate(-596 -1663) translate(37 150) translate(510 1500) translate(49 13) translate(26 12) rotate(-6 13.538 13.308)"/>
                            <path stroke="#B90330" d="M20 7L10 17" transform="translate(-596 -1663) translate(37 150) translate(510 1500) translate(49 13) translate(26 12)"/>
                            <path stroke="#B90330" d="M20 7L10 17" transform="translate(-596 -1663) translate(37 150) translate(510 1500) translate(49 13) translate(26 12) matrix(-1 0 0 1 30 0)"/>
                        </g>
                    </g>
                </g>
            </g>
        </g>
    </g>
</svg>
