<svg xmlns="http://www.w3.org/2000/svg" width="52" height="52" viewBox="0 0 52 52">
    <g fill="none" fill-rule="evenodd">
        <path fill="#0A0B09" d="M38.226 39.066h-8.907c-.3 0-.583-.133-.78-.366-.199-.234-.29-.544-.254-.853l.803-6.722c.217-1.935 1.155-3.68 2.64-4.906l6.13-5.013c.767-.632 1.731-.916 2.705-.795.489.06.95.217 1.365.46l.704-10.293c.127-1.147.687-2.157 1.542-2.819.814-.63 1.8-.876 2.767-.695.89.157 1.698.658 2.264 1.408l.01.012c.59.805.855 1.802.747 2.81l-1.215 15.94c-.156 1.379-.826 2.618-1.843 3.443l-7.365 6.03-.293 1.492c-.1.505-.526.867-1.02.867z" transform="translate(1 4)"/>
        <path fill="#0A0B09" d="M37.225 30.968c-.274 0-.547-.111-.752-.334-.397-.432-.384-1.119.031-1.534l4.67-4.672c.13-.112.179-.16.225-.211.18-.195.302-.4.374-.62.185-.567.775-.871 1.32-.68.545.193.836.809.652 1.377-.17.525-.452 1.003-.837 1.418-.107.12-.233.241-.368.352l-4.594 4.602c-.201.202-.462.302-.721.302M40.001 44.03H26.946c-.298 0-.582-.134-.779-.366-.197-.232-.29-.541-.255-.85l.571-4.962c.064-.546.508-.956 1.035-.956h12.866c.291 0 .569.126.766.349.196.222.296.52.273.823l-.384 4.963c-.043.564-.495.998-1.038.998zM20.669 39.066h-8.907c-.494 0-.92-.362-1.02-.867l-.294-1.491-7.368-6.034c-1.013-.822-1.683-2.061-1.836-3.398L.023 11.258c-.106-.972.16-1.97.75-2.774l.01-.012c.566-.75 1.373-1.251 2.273-1.41.961-.18 1.943.067 2.757.697.855.662 1.416 1.672 1.539 2.77l.707 10.341c.415-.242.878-.4 1.366-.46.97-.12 1.937.164 2.708.8l6.123 5.006c1.488 1.23 2.426 2.974 2.645 4.917l.801 6.714c.037.309-.055.62-.253.853-.197.233-.481.366-.78.366z" transform="translate(1 4)"/>
        <path fill="#0A0B09" d="M23.041 44.03H9.986c-.543 0-.994-.435-1.038-.999l-.383-4.963c-.024-.302.076-.6.272-.823.197-.223.475-.35.766-.35H22.47c.527 0 .971.411 1.034.957l.571 4.963c.036.308-.058.617-.255.85-.197.231-.48.364-.779.364z" transform="translate(1 4)"/>
        <path fill="#FFF" d="M28.12 41.859L39.04 41.859 39.256 39.066 28.441 39.066zM10.947 41.859L21.868 41.859 21.546 39.066 10.732 39.066z" transform="translate(1 4)"/>
        <g>
            <path fill="#0A0B09" d="M14.936 23.073H5.543c-.493 0-.892-.417-.892-.93v-.254c0-1.3-.538-2.554-1.514-3.532C.989 16.201-.148 13.176.016 10.056.309 4.657 4.593.246 9.767.012c2.838-.137 5.51.911 7.549 2.941 2.04 2.031 3.162 4.77 3.162 7.712 0 2.918-1.165 5.743-3.195 7.749-.937.927-1.454 2.159-1.454 3.469v.26c0 .513-.4.93-.893.93z" transform="translate(1 4) translate(14.93)"/>
            <path fill="#FFE300" d="M6.402 21.212h7.676c.157-1.559.858-3.043 1.976-4.148 1.702-1.681 2.639-3.953 2.639-6.399 0-2.429-.928-4.69-2.61-6.367C14.4 2.623 12.185 1.756 9.846 1.87c-4.271.194-7.807 3.835-8.05 8.29-.135 2.577.805 5.077 2.577 6.857 1.163 1.164 1.869 2.634 2.028 4.195z" transform="translate(1 4) translate(14.93)"/>
            <path fill="#0A0B09" d="M14.936 26.794H5.543c-.493 0-.892-.417-.892-.93 0-.514.4-.93.892-.93h9.393c.494 0 .893.416.893.93 0 .513-.4.93-.893.93M4.472 11.24c-.017 0-.034 0-.051-.002-.493-.03-.868-.468-.84-.981.19-3.508 2.977-6.375 6.342-6.528.523-.01.91.376.93.889.022.513-.36.947-.852.97-2.461.112-4.498 2.209-4.639 4.774-.027.495-.42.878-.89.878" transform="translate(1 4) translate(14.93)"/>
        </g>
        <path fill="#F8D99F" d="M30.497 36.896h6.88l.2-1.015c.05-.251.183-.476.376-.634l7.668-6.28c.584-.474.968-1.182 1.054-1.946l1.213-15.934c.051-.475-.068-.927-.323-1.278-.246-.323-.595-.539-.981-.607-.414-.077-.821.031-1.168.3-.395.306-.655.772-.712 1.279L43.8 24.023c-.037.562-.483 1-1.024 1.008-.517.025-.996-.416-1.05-.978-.03-.307-.148-.61-.334-.854-.27-.358-.65-.58-1.074-.633-.418-.049-.837.07-1.17.345l-6.13 5.012c-1.046.864-1.71 2.095-1.863 3.462l-.658 5.51zM12.611 36.896h6.88l-.658-5.503c-.154-1.375-.817-2.606-1.867-3.473l-6.122-5.006c-.336-.278-.749-.397-1.175-.348-.425.052-.804.275-1.069.627-.19.25-.309.553-.338.86-.054.562-.52.99-1.05.978-.542-.008-.987-.446-1.025-1.008L5.28 10.732c-.053-.458-.312-.924-.708-1.23-.347-.27-.762-.376-1.157-.302-.396.07-.745.286-.991.609-.256.351-.375.803-.327 1.242l1.22 16.012c.083.722.466 1.43 1.047 1.901l7.671 6.283c.194.158.327.383.377.634l.2 1.015z" transform="translate(1 4)"/>
    </g>
</svg>
