<svg xmlns="http://www.w3.org/2000/svg" width="52" height="52" viewBox="0 0 52 52">
    <g fill="none" fill-rule="evenodd">
        <g>
            <g>
                <g>
                    <g>
                        <g>
                            <path stroke="#1D628A" stroke-width="2" d="M36.237 1.023v49.923H1.022V1.023h35.215z" transform="translate(-596 -1813) translate(37 150) translate(510 1650) translate(49 13) translate(8)"/>
                            <path fill="#FFFFFE" d="M3.715 13.657L33.715 13.657 33.715 5.657 3.715 5.657zM15.715 41.657L31.715 41.657 31.715 37.657 15.715 37.657z" transform="translate(-596 -1813) translate(37 150) translate(510 1650) translate(49 13) translate(8)"/>
                            <path fill="#F8716C" d="M4.715 11.657L10.715 11.657 10.715 7.657 4.715 7.657z" transform="translate(-596 -1813) translate(37 150) translate(510 1650) translate(49 13) translate(8)"/>
                            <path fill="#4A4A4A" d="M13.715 8.157L31.715 8.157 31.715 7.657 13.715 7.657zM13.715 11.157L31.715 11.157 31.715 10.657 13.715 10.657z" transform="translate(-596 -1813) translate(37 150) translate(510 1650) translate(49 13) translate(8)"/>
                            <path fill="#FFFFFE" d="M13.715 10.157L31.715 10.157 31.715 9.657 13.715 9.657z" transform="translate(-596 -1813) translate(37 150) translate(510 1650) translate(49 13) translate(8)"/>
                            <path fill="#4A4A4A" d="M3.715 17.157L11.715 17.157 11.715 16.657 3.715 16.657zM3.715 20.157L11.715 20.157 11.715 19.657 3.715 19.657zM3.715 23.157L11.715 23.157 11.715 22.657 3.715 22.657zM25 37.5L33 37.5 33 37 25 37zM25 40.5L33 40.5 33 40 25 40zM25 43.5L33 43.5 33 43 25 43zM3.715 26.157L11.715 26.157 11.715 25.657 3.715 25.657z" transform="translate(-596 -1813) translate(37 150) translate(510 1650) translate(49 13) translate(8)"/>
                            <path fill="#F8716C" d="M13 26.657L33 26.657 33 16.657 13 16.657zM4 44L21 44 21 37 4 37z" transform="translate(-596 -1813) translate(37 150) translate(510 1650) translate(49 13) translate(8)"/>
                            <path fill="#115D5A" d="M3.715 30.5L32.715 30.5 32.715 30 3.715 30zM3.715 34L32.715 34 32.715 33.5 3.715 33.5z" transform="translate(-596 -1813) translate(37 150) translate(510 1650) translate(49 13) translate(8)"/>
                        </g>
                    </g>
                </g>
            </g>
        </g>
    </g>
</svg>
