<svg xmlns="http://www.w3.org/2000/svg" width="52" height="52" viewBox="0 0 52 52">
    <g fill="none" fill-rule="evenodd">
        <g>
            <g>
                <g>
                    <g>
                        <g>
                            <path fill="#4A4A4A" d="M42.083 35.116H3.65c-1.642 0-2.978-1.336-2.978-2.978V9.879c0-1.642 1.336-2.978 2.978-2.978h38.433c1.642 0 2.978 1.336 2.978 2.978v22.259c0 1.642-1.336 2.978-2.978 2.978z" transform="translate(-936 -1813) translate(37 150) translate(850 1650) translate(49 13) translate(0 8)"/>
                            <path fill="#FFE300" d="M3.65 9.597c-.156 0-.282.127-.282.282v22.259c0 .156.126.282.282.282h38.433c.156 0 .282-.126.282-.282V9.879c0-.155-.126-.282-.282-.282H3.65z" transform="translate(-936 -1813) translate(37 150) translate(850 1650) translate(49 13) translate(0 8)"/>
                            <path fill="#343534" d="M48.31 28.89h-4.597c-.744 0-1.348-.604-1.348-1.348 0-.745.604-1.348 1.348-1.348h4.597c.155 0 .282-.127.282-.282V3.652c0-.155-.127-.282-.282-.282H9.877c-.156 0-.282.127-.282.283v4.596c0 .744-.604 1.348-1.348 1.348-.745 0-1.348-.604-1.348-1.348V3.653C6.899 2.01 8.235.675 9.877.675H48.31c1.642 0 2.978 1.336 2.978 2.978v22.259c0 1.641-1.336 2.977-2.978 2.977" transform="translate(-936 -1813) translate(37 150) translate(850 1650) translate(49 13) translate(0 8)"/>
                            <path fill="#343534" d="M37.697 17.106H24.755c-.745 0-1.348-.603-1.348-1.347 0-.745.603-1.348 1.348-1.348h12.942c.745 0 1.348.603 1.348 1.348 0 .744-.603 1.347-1.348 1.347M37.697 22.356H24.755c-.745 0-1.348-.603-1.348-1.348 0-.744.603-1.347 1.348-1.347h12.942c.745 0 1.348.603 1.348 1.347 0 .745-.603 1.348-1.348 1.348M37.697 27.606H24.755c-.745 0-1.348-.603-1.348-1.347 0-.745.603-1.348 1.348-1.348h12.942c.745 0 1.348.603 1.348 1.348 0 .744-.603 1.347-1.348 1.347" transform="translate(-936 -1813) translate(37 150) translate(850 1650) translate(49 13) translate(0 8)"/>
                            <path fill="#FFF" d="M16.66 16.442c0-1.747-1.415-3.162-3.161-3.162-1.747 0-3.163 1.415-3.163 3.162 0 1.746 1.416 3.162 3.163 3.162 1.746 0 3.162-1.416 3.162-3.162" transform="translate(-936 -1813) translate(37 150) translate(850 1650) translate(49 13) translate(0 8)"/>
                            <path fill="#343534" d="M13.499 14.129c-1.276 0-2.314 1.037-2.314 2.313 0 1.275 1.038 2.313 2.314 2.313 1.275 0 2.313-1.038 2.313-2.313 0-1.276-1.038-2.313-2.313-2.313zm0 6.324c-2.212 0-4.012-1.8-4.012-4.011 0-2.212 1.8-4.012 4.012-4.012 2.211 0 4.011 1.8 4.011 4.012 0 2.212-1.8 4.011-4.011 4.011z" transform="translate(-936 -1813) translate(37 150) translate(850 1650) translate(49 13) translate(0 8)"/>
                            <path fill="#FFF" d="M19.5 28.738H7.497c0-2.462 0-6.16 6.003-6.16 6.002 0 6.002 3.698 6.002 6.16" transform="translate(-936 -1813) translate(37 150) translate(850 1650) translate(49 13) translate(0 8)"/>
                            <path fill="#343534" d="M8.353 27.888h10.291c-.058-2.24-.573-4.461-5.145-4.461-4.573 0-5.088 2.221-5.146 4.461zm11.15 1.699H7.496c-.469 0-.85-.38-.85-.85 0-1.27 0-3.008.875-4.444 1.036-1.702 3.047-2.565 5.978-2.565 2.93 0 4.94.863 5.977 2.565.862 1.415.874 3.126.874 4.39l.002.055c0 .469-.38.849-.85.849z" transform="translate(-936 -1813) translate(37 150) translate(850 1650) translate(49 13) translate(0 8)"/>
                        </g>
                    </g>
                </g>
            </g>
        </g>
    </g>
</svg>
