<?xml version="1.0" encoding="UTF-8"?>
<svg width="18px" height="18px" viewBox="0 0 18 18" version="1.1" xmlns="http://www.w3.org/2000/svg" xmlns:xlink="http://www.w3.org/1999/xlink">
    <title>icons / graph / left-rotate</title>
    <g id="icons-/-graph-/-left-rotate" stroke="none" stroke-width="1" fill="none" fill-rule="evenodd">
        <path d="M9.93,16.02 L9.93,17.9336842 C13.88,17.4694737 16.93,14.2863158 16.93,10.4210526 C16.93,6.55578947 13.88,3.37263158 9.93,2.90842105 L9.93,0 L5.38,4.31052632 L9.93,8.52631579 L9.93,4.82210526 C12.77,5.27684211 14.93,7.60736842 14.93,10.4210526 C14.93,13.2347368 12.77,15.5652632 9.93,16.02 Z M2.62,15.0536842 L4.03,13.7084211 C3.51,12.9978947 3.16,12.2021053 3.02,11.3684211 L1,11.3684211 C1.17,12.6852632 1.72,13.9547368 2.62,15.0536842 Z M4.04,7.13368421 L2.63,5.78842105 C1.73,6.88736842 1.17,8.15684211 1,9.47368421 L3.02,9.47368421 C3.16,8.64947368 3.51,7.84421053 4.04,7.13368421 L4.04,7.13368421 Z M7.93,16.0105263 C7.06,15.8684211 6.22,15.5463158 5.47,15.0347368 L4.03,16.4084211 C5.19,17.2610526 6.54,17.7726316 7.93,17.9336842 L7.93,16.0105263 Z" id="shape" fill="#0079B5"></path>
    </g>
</svg>