<?xml version="1.0" encoding="UTF-8"?>
<svg width="34px" height="34px" viewBox="0 0 34 34" version="1.1" xmlns="http://www.w3.org/2000/svg" xmlns:xlink="http://www.w3.org/1999/xlink">
    <title>protrector</title>
    <g id="Page-1" stroke="none" stroke-width="1" fill="none" fill-rule="evenodd">
        <g id="protrector" transform="translate(1.000000, 1.000000)" fill="#FFFFFF" fill-rule="nonzero">
            <path d="M31.7946939,8.29611393 C31.7942396,8.29565956 31.7937203,8.29514029 31.7932659,8.29468593 L26.2838136,2.7852336 C26.0810388,2.58252366 25.752341,2.58252366 25.5495662,2.7852336 L24.4414444,3.8933553 C18.5614931,-1.57533435 9.36159049,-1.24189825 3.89290084,4.63805307 C-1.29765495,10.2189699 -1.29765495,18.8609172 3.89290084,24.441834 L2.78477913,25.5500206 C2.58206919,25.7527955 2.58206919,26.0814932 2.78477913,26.2842681 L8.29423146,31.7937204 C8.49700631,31.9964304 8.82570408,31.9964304 9.02847893,31.7937204 L31.7932659,9.03049121 C31.9964302,8.82810581 31.9970793,8.49927823 31.7946939,8.29611393 Z" id="Path"></path>
            <path d="M29.2219433,10.8364742 L27.3851848,8.99971564 L29.1956774,10.8644896 L27.0202007,13.0407355 L24.4476757,10.4682106 L26.9933727,13.068189 L24.8154631,15.2414828 L22.9781422,13.4041619 L24.7886973,15.2689983 L22.6125406,17.445155 L20.0405974,14.8726925 L22.5849007,17.4717964 L20.0442487,20.0196396 L18.206053,18.1814438 L20.0191476,20.0438658 L17.8425373,22.2197067 L15.2698877,19.6475764 L17.8139013,22.2474291 L15.2706209,24.7907096 L13.4329252,22.9530138 L15.2412907,24.8162799 L13.0658639,26.9924759 L10.493339,24.4199509 L13.0387233,27.0196166 L10.8624773,29.1950933 L9.02484404,27.3574601 L10.8350368,29.2225532 L8.66155254,31.3998843 L3.18252461,25.9172792 L4.32212115,24.7760678 C1.76125302,21.4441484 0.469630619,18.0179918 0.433196667,14.5831576 C0.395191398,11.0001865 1.72404262,7.40271841 4.42876163,4.64000965 C7.13348246,1.87729902 10.7019588,0.472435334 14.2849322,0.43443004 C17.8679033,0.396424772 21.4653714,1.725276 24.2318214,4.43369647 L25.9536799,3.21960364 L31.4020183,8.66794208 L29.2219433,10.8364742 Z" id="Path" stroke="#0079B5" stroke-width="2"></path>
            <path d="M29.3303113,10.0842284 L27.477893,8.23163235 L26.7377631,8.97183322 L28.5901814,10.8244293 L27.1099218,12.3053545 L24.5168502,9.71203408 L23.7767204,10.4522349 L26.3697919,13.0455554 L24.887962,14.5243866 L23.0355437,12.6717906 L22.2954139,13.4119914 L24.1478322,15.2645875 L22.6670491,16.7455127 L20.0745009,14.1521923 L19.3343711,14.8923932 L21.9269192,17.4857136 L20.0776415,19.3404036 L18.2252232,17.4878075 L17.4850934,18.2280084 L19.3396054,20.0785105 L17.8588223,21.5589122 L15.2657508,18.9661153 L14.5240506,19.7068396 L17.1171222,22.2996366 L15.2662742,24.1506622 L13.4138559,22.2980661 L12.6737261,23.038267 L14.5240506,24.8892926 L13.043791,26.3702178 L10.4507194,23.7768974 L9.71058958,24.5170983 L12.3036611,27.1104187 L10.822878,28.5908204 L8.97045975,26.7382244 L8.23032992,27.4784252 L10.0827482,29.3315448 L8.60405884,30.8129935 L3.79373837,25.9990704 L4.9018394,24.8892926 C5.10617333,24.6848737 5.10617333,24.3535108 4.9018394,24.1490918 C-0.468943604,18.8905379 -0.560347545,10.2733356 4.69770175,4.90203717 C9.95575104,-0.469261271 18.5721264,-0.560673983 23.9429094,4.69787993 C24.0114132,4.76495082 24.0791974,4.83274149 24.1462619,4.90125195 C24.3506612,5.1056055 24.6819923,5.1056055 24.8863917,4.90125195 L25.9976333,3.79304458 L30.8131881,8.60906151 L29.3303113,10.0842284 Z" id="Path-Copy"></path>
            <path d="M8.30357832,20.0301829 C5.26967974,16.5877488 5.60084404,11.3376717 9.04327812,8.30377315 C12.1827832,5.53684415 16.8900935,5.53677924 20.0297284,8.30351352 L8.30357832,20.0301829 Z" id="Path" stroke="#0079B5" stroke-width="2"></path>
        </g>
    </g>
</svg>